<svg xmlns="http://www.w3.org/2000/svg" viewBox="0 0 383 166" width="383" height="166">
<g transform="translate(0.000000,166.000000) scale(0.025000,-0.025000)">
<path fill="#1E4A8C" d="M11179 6560 c-71 -38 -119 -123 -119 -213 0 -57 4 -70 39 -123 21
-32 53 -68 72 -78 31 -17 30 -16 -11 21 -96 86 -119 203 -57 301 36 57 62 79
116 98 21 8 28 13 16 13 -11 0 -36 -8 -56 -19z"/>
<path fill="#1E4A8C" d="M174 5921 c-44 -11 -52 -18 -85 -69 l-29 -46 0 -2812 0 -2812 33 -40
c17 -23 39 -44 47 -49 17 -9 6887 -17 6935 -8 17 3 45 18 63 33 l32 27 0 2843
c1 1758 -3 2849 -9 2860 -17 31 -55 60 -96 71 -46 13 -6838 14 -6891 2z m1294
-388 c18 -25 18 -5016 -1 -5053 l-13 -25 -507 -3 -507 -2 -10 26 c-7 16 -10
922 -10 2535 0 2376 1 2510 18 2527 16 16 52 17 517 14 454 -2 501 -4 513 -19z
m1408 6 c12 -10 14 -423 14 -2525 0 -1608 -4 -2522 -10 -2538 l-10 -26 -499 0
c-485 0 -501 1 -511 19 -7 14 -9 815 -8 2543 l3 2522 21 11 c29 15 982 9 1000
-6z m3920 7 c18 -14 19 -31 19 -501 0 -451 -1 -488 -17 -499 -11 -8 -69 -15
-155 -19 -76 -4 -157 -11 -180 -17 -23 -5 -90 -17 -148 -25 -58 -8 -117 -21
-133 -29 -15 -7 -47 -17 -72 -21 -75 -12 -222 -54 -275 -80 -27 -13 -88 -35
-135 -50 -47 -15 -100 -35 -117 -45 -18 -11 -51 -24 -74 -30 -23 -6 -59 -22
-80 -36 -21 -13 -41 -24 -43 -24 -11 0 -237 -115 -306 -155 -41 -25 -96 -56
-121 -69 -25 -14 -59 -36 -75 -49 -16 -13 -60 -44 -99 -70 -175 -115 -417
-318 -580 -488 -55 -57 -113 -117 -130 -134 -31 -31 -91 -102 -135 -160 -14
-18 -53 -68 -87 -111 -103 -131 -153 -202 -203 -287 -14 -24 -40 -65 -58 -92
-18 -28 -35 -61 -39 -75 -3 -14 -14 -35 -25 -47 -22 -24 -88 -151 -88 -169 0
-6 -8 -22 -19 -35 -20 -26 -81 -172 -81 -194 0 -7 -7 -21 -16 -30 -45 -45 -44
-104 -44 1765 0 1463 2 1759 13 1769 10 8 483 12 1733 14 945 1 1726 3 1735 5
8 1 24 -4 35 -12z m14 -1405 c6 -12 10 -136 10 -333 0 -273 -2 -317 -16 -337
-13 -17 -23 -22 -46 -19 -16 3 -62 -1 -101 -9 -40 -7 -115 -20 -167 -29 -52
-8 -126 -24 -165 -34 -38 -11 -87 -21 -109 -24 -40 -5 -114 -31 -204 -72 -29
-13 -61 -24 -71 -24 -9 0 -40 -11 -67 -25 -27 -14 -83 -39 -124 -56 -41 -17
-86 -38 -99 -47 -40 -28 -94 -60 -130 -77 -18 -9 -45 -24 -60 -34 -14 -10 -46
-31 -71 -47 -25 -15 -61 -42 -82 -59 -20 -16 -65 -50 -99 -75 -35 -25 -79 -61
-98 -81 -20 -20 -79 -76 -131 -125 -180 -169 -346 -376 -479 -594 -85 -140
-159 -281 -182 -347 -10 -29 -27 -66 -38 -81 -21 -30 -54 -115 -78 -201 -8
-30 -21 -63 -28 -75 -8 -11 -17 -41 -21 -66 -3 -25 -12 -63 -19 -85 -7 -22
-18 -76 -25 -120 -6 -44 -20 -98 -29 -120 -25 -56 -29 -85 -42 -285 -8 -133
-14 -179 -26 -192 -15 -16 -43 -18 -309 -18 -292 0 -293 0 -305 22 -16 30 -5
256 21 418 65 413 73 454 103 526 13 32 28 77 31 99 10 58 53 189 76 235 11
21 20 48 20 60 0 29 193 435 235 495 12 17 34 53 50 80 46 81 114 183 189 285
39 52 81 111 95 130 45 66 273 310 369 396 53 47 106 96 117 108 21 22 146
119 219 170 22 15 52 39 67 52 14 13 30 24 36 24 6 0 24 11 40 24 15 13 44 31
63 41 19 10 60 35 91 55 31 20 73 46 95 57 85 45 292 143 301 143 6 0 22 9 36
20 13 11 49 26 78 34 75 21 161 51 196 69 16 9 58 21 93 27 35 6 80 20 99 30
20 10 63 23 96 28 33 6 92 18 130 26 39 8 113 20 165 26 52 7 118 16 145 20
98 14 143 12 155 -9z m-10 -1091 c19 -19 20 -33 20 -325 0 -292 -1 -306 -20
-325 -11 -11 -29 -20 -40 -20 -10 0 -59 -11 -107 -24 -93 -25 -144 -38 -233
-62 -30 -8 -77 -26 -105 -39 -27 -13 -77 -36 -110 -50 -33 -14 -69 -35 -80
-45 -11 -11 -37 -26 -57 -34 -58 -25 -193 -121 -305 -216 -103 -89 -279 -284
-309 -343 -9 -18 -26 -41 -36 -52 -27 -27 -117 -180 -135 -230 -18 -47 -47
-112 -78 -175 -13 -25 -26 -61 -30 -80 -4 -19 -17 -66 -30 -105 -41 -127 -57
-208 -64 -328 -4 -71 -12 -122 -20 -130 -9 -9 -90 -13 -315 -15 -269 -3 -305
-1 -320 13 -28 28 -17 274 18 398 25 89 58 220 69 272 12 60 65 225 76 240 5
5 16 35 26 65 10 30 26 67 36 81 10 15 33 62 50 105 17 44 39 88 49 99 9 11
36 54 59 96 22 42 48 82 56 89 8 7 15 18 15 24 0 19 125 184 215 284 146 161
238 245 420 382 141 106 437 269 515 284 19 3 50 17 70 31 35 24 130 54 250
80 36 7 85 21 110 30 25 9 99 21 165 26 65 5 121 12 124 14 10 11 32 4 51 -15z
m4 -1072 c14 -20 16 -108 16 -753 0 -645 -2 -733 -16 -753 l-15 -22 -650 0
c-648 0 -649 0 -670 21 -23 23 -23 25 1 199 13 90 22 125 63 230 14 36 35 92
48 125 12 33 30 72 40 86 10 14 21 37 24 52 4 14 13 31 21 38 8 6 14 17 14 25
0 7 13 28 28 46 16 18 38 50 50 71 32 55 94 128 194 224 78 76 138 124 273
220 57 41 241 128 300 142 27 7 55 17 62 23 12 10 150 45 185 47 9 1 24 -9 32
-21z"/>
<path fill="#1E4A8C" d="M8293 5836 c-82 -14 -138 -30 -73 -21 163 21 252 25 340 16 52 -6
118 -13 145 -16 47 -4 46 -4 -15 10 -96 21 -299 27 -397 11z"/>
<path fill="#1E4A8C" d="M10620 5829 c-41 -10 -57 -16 -35 -13 22 2 63 7 90 11 75 8 80 -2 81
-159 0 -70 3 -131 7 -134 3 -3 5 55 4 128 -2 109 -5 139 -20 161 -20 31 -26
32 -127 6z"/>
<path fill="#1E4A8C" d="M12640 5840 c-36 -5 -87 -13 -115 -19 l-50 -10 45 4 c271 24 295 24
404 10 134 -18 146 -18 81 0 -63 17 -279 26 -365 15z"/>
<path fill="#1E4A8C" d="M14422 5833 c-101 -21 -83 -27 24 -9 113 20 197 20 313 0 118 -20
129 -13 13 9 -105 21 -251 20 -350 0z"/>
<path fill="#1E4A8C" d="M9935 5832 c-139 -2 -151 -4 -167 -23 -17 -20 -18 -77 -18 -890 l0
-868 22 -15 c18 -13 50 -16 168 -14 l145 2 -150 5 c-82 4 -156 10 -162 14 -10
6 -13 192 -13 870 0 765 2 865 16 885 15 21 21 22 173 22 109 0 161 -4 169
-12 8 -8 12 -51 12 -129 0 -65 5 -130 10 -144 13 -35 39 -29 63 15 l19 35 -22
-27 c-24 -31 -45 -36 -54 -12 -3 9 -6 69 -6 133 0 100 -3 120 -17 133 -27 23
-28 23 -188 20z"/>
<path fill="#1E4A8C" d="M11117 5812 c-16 -17 -17 -93 -17 -893 0 -667 3 -878 12 -887 9 -9
58 -11 173 -10 l160 2 -165 6 -165 5 -3 879 c-1 641 1 882 9 892 9 11 49 14
170 14 146 0 159 -1 169 -19 16 -31 14 -1743 -2 -1761 -11 -12 -10 -12 5 -1
16 13 17 67 17 886 0 832 -1 873 -18 888 -16 14 -43 17 -174 17 -137 0 -157
-2 -171 -18z"/>
<path fill="#1E4A8C" d="M14214 5767 c-44 -24 -100 -59 -124 -80 -53 -45 -120 -142 -119 -171
1 -17 2 -16 9 6 13 43 78 126 133 169 48 38 171 103 212 112 16 4 15 5 -5 5
-14 1 -61 -18 -106 -41z"/>
<path fill="#1E4A8C" d="M8905 5748 c68 -37 130 -89 176 -147 68 -85 76 -93 53 -53 -33 57
-102 129 -165 171 -34 23 -66 41 -73 41 -6 0 -2 -6 9 -12z"/>
<path fill="#1E4A8C" d="M13230 5747 c0 -2 26 -22 58 -45 75 -55 141 -139 185 -237 20 -44 37
-74 37 -68 0 7 -18 50 -39 96 -30 62 -57 100 -109 152 -58 59 -132 116 -132
102z"/>
<path fill="#1E4A8C" d="M15201 5646 c-2 -29 -80 -198 -104 -223 -26 -29 -38 -29 -83 2 -20
14 -42 25 -47 25 -6 0 10 -13 36 -30 58 -37 67 -37 99 -2 32 34 111 206 105
230 -4 15 -5 15 -6 -2z"/>
<path fill="#1E4A8C" d="M7745 5634 c-25 -26 -19 -40 89 -221 20 -35 31 -43 54 -43 15 0 37 7
48 16 18 15 18 15 -3 5 -51 -25 -70 -15 -109 57 -20 37 -44 78 -54 92 -29 43
-34 69 -14 91 21 23 12 26 -11 3z"/>
<path fill="#1E4A8C" d="M14510 5543 c-14 -2 -53 -13 -87 -24 -69 -22 -92 -45 -118 -114 -16
-40 -16 -47 -1 -93 21 -62 84 -123 128 -122 7 0 -5 9 -28 19 -67 31 -112 117
-94 181 21 74 50 100 144 130 46 15 207 15 256 0 19 -5 46 -10 60 -9 40 1 -89
26 -165 32 -38 3 -81 3 -95 0z"/>
<path fill="#1E4A8C" d="M8310 5530 c-20 -5 5 -6 60 -3 135 7 232 -14 310 -66 59 -40 108 -87
122 -120 5 -11 7 -12 7 -2 2 24 -58 88 -121 129 -95 62 -256 88 -378 62z"/>
<path fill="#1E4A8C" d="M12918 5500 c99 -35 172 -108 206 -205 14 -39 25 -62 26 -53 0 28
-38 117 -68 154 -43 56 -155 125 -201 124 -9 -1 8 -9 37 -20z"/>
<path fill="#1E4A8C" d="M12092 5493 c15 -33 47 -81 65 -100 28 -29 63 -29 106 0 19 12 43 28
53 34 15 10 13 10 -11 1 -16 -7 -42 -20 -57 -30 -49 -34 -77 -20 -127 65 -13
20 -25 37 -28 37 -2 0 -3 -3 -1 -7z"/>
<path fill="#1E4A8C" d="M13947 5442 c-35 -96 -18 -244 40 -356 30 -57 136 -150 222 -194 46
-24 85 -41 88 -39 2 3 -36 24 -84 48 -89 45 -188 131 -219 192 -52 99 -69 253
-38 343 8 25 14 48 12 50 -2 2 -12 -18 -21 -44z"/>
<path fill="#1E4A8C" d="M10364 5377 c-69 -44 -174 -170 -174 -209 0 -7 6 -2 13 12 36 68 128
180 149 180 4 0 24 11 44 25 54 36 28 30 -32 -8z"/>
<path fill="#1E4A8C" d="M8811 5314 c-1 -6 6 -31 14 -54 19 -55 19 -100 -1 -128 -15 -22 -19
-22 -267 -23 -139 -1 -292 -4 -342 -8 -49 -4 65 -5 255 -3 334 3 346 4 363 24
23 27 22 100 -3 158 -10 25 -19 40 -19 34z"/>
<path fill="#1E4A8C" d="M13520 4651 c1 -332 -1 -605 -4 -608 -2 -3 -38 -8 -78 -13 l-73 -7
70 -1 c39 -1 76 2 83 7 11 7 13 121 12 612 0 331 -3 605 -6 608 -2 3 -4 -266
-4 -598z"/>
<path fill="#1E4A8C" d="M13137 5125 c-6 -13 -43 -15 -279 -16 -150 -1 -304 -4 -343 -8 -38
-4 83 -5 270 -3 270 3 343 7 354 18 8 7 12 16 9 19 -3 3 -8 -1 -11 -10z"/>
<path fill="#1E4A8C" d="M7861 5010 c-82 -55 -146 -118 -180 -174 -19 -31 -32 -59 -29 -61 2
-3 19 22 38 55 33 59 106 130 169 166 72 41 76 44 61 44 -8 0 -35 -14 -59 -30z"/>
<path fill="#1E4A8C" d="M12171 5012 c-134 -83 -251 -251 -238 -339 4 -25 4 -25 6 6 2 56 66
175 124 232 49 48 133 110 167 122 13 5 13 5 0 6 -8 0 -35 -12 -59 -27z"/>
<path fill="#1E4A8C" d="M10135 4520 c0 -261 1 -368 2 -238 2 131 2 345 0 475 -1 131 -2 24
-2 -237z"/>
<path fill="#1E4A8C" d="M8408 4833 c72 -2 192 -2 265 0 72 1 13 3 -133 3 -146 0 -205 -2
-132 -3z"/>
<path fill="#1E4A8C" d="M12853 4830 c232 -4 279 -7 287 -20 6 -9 10 -10 10 -3 0 29 -43 33
-307 31 l-268 -2 278 -6z"/>
<path fill="#1E4A8C" d="M8824 4814 c12 -11 16 -36 16 -95 0 -113 -34 -193 -113 -264 -32 -29
-73 -60 -90 -69 -18 -8 -25 -16 -16 -16 10 0 48 24 85 53 57 43 75 65 104 122
30 61 35 82 38 156 4 85 -6 129 -29 129 -6 0 -3 -7 5 -16z"/>
<path fill="#1E4A8C" d="M13152 4720 c-5 -185 -103 -299 -332 -386 -23 -8 -28 -13 -15 -13 11
-1 58 17 104 40 110 52 195 136 229 224 18 48 22 75 19 135 l-3 75 -2 -75z"/>
<path fill="#1E4A8C" d="M14696 4716 c11 -8 39 -22 62 -31 50 -20 111 -103 119 -163 10 -76
-44 -147 -147 -194 -13 -6 -13 -7 0 -7 8 -1 38 15 67 34 54 36 93 98 93 148 0
72 -62 157 -144 198 -63 32 -82 37 -50 15z"/>
<path fill="#1E4A8C" d="M9222 4369 c-1 -229 -5 -318 -14 -327 -8 -8 -61 -12 -174 -12 -185 0
-189 2 -179 72 7 53 -6 102 -28 106 -10 2 -35 -12 -58 -32 -22 -19 -65 -47
-94 -63 -30 -15 -52 -29 -50 -31 6 -6 80 36 135 77 30 23 58 41 62 41 16 0 29
-56 23 -98 -5 -34 -3 -48 11 -63 15 -17 32 -19 179 -19 145 0 164 2 179 18 15
17 16 51 13 333 l-2 314 -3 -316z"/>
<path fill="#1E4A8C" d="M7976 4620 c-9 -65 0 -115 31 -167 28 -51 119 -121 165 -129 l33 -5
-35 14 c-62 23 -129 76 -157 124 -24 41 -27 57 -26 130 0 46 -1 83 -2 83 -1 0
-5 -23 -9 -50z"/>
<path fill="#1E4A8C" d="M13960 4493 c-29 -38 -100 -191 -100 -218 0 -35 78 -99 184 -149 53
-25 104 -46 113 -45 11 0 8 4 -8 9 -15 4 -70 30 -124 56 -98 49 -155 98 -155
134 0 23 86 204 105 220 10 8 26 3 70 -25 61 -40 193 -105 211 -105 6 0 24 -6
40 -14 16 -8 40 -17 54 -20 l25 -7 -25 15 c-14 7 -52 23 -85 34 -70 22 -160
67 -225 111 -25 17 -48 31 -52 31 -4 0 -16 -12 -28 -27z"/>
<path fill="#1E4A8C" d="M11946 4380 c20 -80 119 -206 208 -265 29 -19 57 -35 61 -35 5 0 -14
14 -41 32 -93 60 -150 125 -207 238 -15 30 -25 44 -21 30z"/>
<path fill="#1E4A8C" d="M7640 4381 c0 -24 60 -128 100 -174 39 -44 148 -127 167 -127 4 0
-15 15 -42 34 -86 58 -149 127 -188 205 -20 41 -37 68 -37 62z"/>
<path fill="#1E4A8C" d="M15190 4301 c0 -28 -103 -129 -174 -171 -88 -52 -95 -64 -12 -19 96
52 215 174 192 196 -3 4 -6 1 -6 -6z"/>
<path fill="#1E4A8C" d="M13077 4182 c-65 -57 -101 -77 -209 -116 -79 -28 -116 -36 -199 -40
-56 -3 -105 -8 -108 -12 -11 -13 211 7 252 22 23 8 69 25 102 36 52 19 90 42
191 121 13 10 28 16 34 12 5 -3 11 -41 12 -83 l2 -77 3 65 c5 76 -2 110 -22
110 -7 0 -34 -17 -58 -38z"/>
<path fill="#1E4A8C" d="M11944 3661 c-28 -3 -58 -11 -65 -17 -8 -6 -29 -16 -46 -22 -51 -17
-101 -62 -136 -122 -29 -51 -32 -63 -35 -160 -4 -103 -3 -106 30 -166 62 -115
147 -164 293 -171 83 -4 96 -2 165 25 88 36 88 35 89 178 1 76 -3 104 -13 113
-27 22 -46 -24 -46 -112 0 -75 -2 -80 -30 -107 -42 -40 -90 -53 -168 -48 -56
4 -78 11 -130 43 -35 22 -70 52 -78 67 -8 15 -18 28 -23 28 -32 0 -43 207 -15
263 31 59 66 92 137 125 91 42 171 44 241 7 49 -26 100 -33 112 -14 9 16 -12
32 -81 61 -69 30 -128 38 -201 29z"/>
<path fill="#1E4A8C" d="M13385 3660 c-34 -4 -89 -21 -128 -39 -57 -28 -73 -42 -107 -92 -121
-182 -64 -408 126 -496 51 -24 71 -28 154 -28 83 0 102 3 150 27 68 33 132 98
161 162 32 74 31 202 -3 276 -37 82 -73 118 -152 155 -83 38 -119 45 -201 35z
m165 -81 c74 -34 109 -72 140 -149 24 -61 25 -109 4 -181 -22 -73 -63 -122
-140 -165 -61 -34 -69 -36 -137 -32 -61 4 -81 10 -129 39 -59 37 -95 77 -124
139 -20 42 -16 181 7 221 38 68 57 90 89 105 19 9 42 22 50 29 17 15 51 21
124 24 36 1 67 -7 116 -30z"/>
<path fill="#1E4A8C" d="M12461 3646 c-16 -19 -11 -628 5 -633 27 -9 44 28 44 97 0 87 7 92
143 92 l102 0 42 -49 c24 -26 43 -53 43 -60 0 -19 48 -70 70 -76 35 -9 34 19
-1 73 -18 27 -35 50 -39 50 -10 0 -30 47 -30 70 0 10 24 44 54 75 46 47 55 63
61 105 9 68 -1 120 -35 173 -23 36 -39 48 -94 70 -61 25 -78 27 -210 27 -109
0 -146 -3 -155 -14z m346 -68 c60 -32 93 -84 93 -150 0 -41 -5 -54 -35 -87
-19 -21 -48 -43 -63 -48 -76 -28 -105 -33 -174 -33 -71 0 -78 2 -98 27 -19 24
-20 37 -18 162 3 133 3 136 28 149 18 9 54 12 122 9 78 -3 105 -9 145 -29z"/>
<path fill="#1E4A8C" d="M14698 3643 c-16 -18 -18 -48 -18 -315 0 -251 2 -297 15 -308 28 -23
45 5 45 74 0 97 7 102 146 109 108 5 122 8 182 40 43 22 76 48 96 76 28 39 31
50 31 121 -1 96 -23 135 -105 182 -54 31 -58 31 -215 36 -149 4 -161 3 -177
-15z m354 -69 c119 -65 117 -198 -4 -275 -49 -31 -60 -34 -153 -37 -89 -3
-104 -1 -125 16 -24 20 -25 24 -25 157 0 134 1 137 25 157 23 19 35 20 127 15
87 -4 109 -9 155 -33z"/>
<path fill="#1E4A8C" d="M13924 3636 c-3 -7 -4 -110 -2 -227 l3 -214 30 -59 c47 -94 126 -136
250 -136 124 1 207 60 245 175 19 56 21 86 20 256 0 106 -4 197 -9 202 -5 5
-17 7 -27 5 -18 -3 -19 -19 -25 -208 -7 -246 -17 -282 -87 -336 -55 -42 -76
-48 -147 -42 -76 6 -129 45 -162 118 -24 52 -26 67 -29 248 -2 106 -6 202 -9
213 -7 22 -43 26 -51 5z"/>
</g>
<g transform="translate(0.000000,166.000000) scale(0.025000,-0.025000)">
<path fill="#3F3F3F" d="M11220 6559 c-80 -33 -144 -123 -144 -204 0 -38 7 -63 32 -106 55
-97 128 -133 227 -115 74 14 165 132 165 216 0 48 -47 141 -90 178 -29 24 -47
31 -100 36 -37 3 -76 1 -90 -5z"/>
<path fill="#3F3F3F" d="M14420 5810 c-127 -20 -215 -57 -302 -127 -58 -47 -118 -125 -128
-167 -4 -17 -15 -58 -24 -91 -21 -79 -20 -150 4 -236 24 -87 45 -122 112 -186
84 -79 273 -168 443 -208 137 -33 267 -97 316 -157 62 -75 72 -129 38 -208
-45 -105 -186 -146 -419 -122 -135 14 -274 66 -424 160 -56 35 -59 32 -130
-116 -32 -67 -32 -79 2 -118 35 -41 211 -130 294 -148 35 -8 83 -23 108 -33
39 -15 75 -18 255 -18 198 0 212 1 252 23 23 12 53 22 66 22 27 0 117 46 180
91 52 38 127 125 127 148 0 10 10 31 23 47 21 27 22 38 22 184 l0 155 -38 60
c-20 32 -49 72 -65 88 -44 47 -142 118 -182 132 -21 7 -46 18 -56 24 -24 13
-153 55 -217 70 -27 6 -65 20 -85 31 -20 11 -44 20 -53 20 -24 0 -167 74 -197
102 -34 32 -65 106 -59 144 3 17 19 54 36 82 29 47 37 52 104 73 87 28 222 30
306 5 30 -9 66 -16 80 -16 14 0 51 -13 81 -29 30 -15 68 -31 84 -35 15 -4 41
-17 57 -29 45 -33 53 -25 123 123 50 104 49 112 -26 154 -35 19 -76 38 -93 42
-16 4 -50 18 -74 31 -25 13 -62 23 -85 23 -23 0 -84 7 -136 15 -118 18 -174
17 -320 -5z"/>
<path fill="#3F3F3F" d="M8220 5805 c-67 -8 -119 -21 -145 -34 -21 -12 -46 -21 -55 -21 -31
-1 -265 -125 -268 -143 -2 -10 7 -32 20 -50 13 -18 39 -62 58 -100 41 -78 50
-81 128 -37 29 16 70 34 90 41 20 6 51 20 67 30 42 25 214 59 301 59 111 0
221 -30 287 -78 57 -43 117 -108 117 -128 0 -7 9 -31 20 -55 25 -57 27 -148 3
-178 -18 -21 -27 -21 -368 -26 -350 -5 -373 -7 -495 -43 -118 -35 -248 -145
-305 -257 -30 -59 -30 -62 -30 -225 l0 -165 31 -60 c18 -33 51 -82 75 -109 48
-54 155 -136 178 -136 8 0 39 -12 70 -27 56 -28 57 -28 266 -28 185 0 214 2
244 18 18 11 55 25 81 33 46 14 155 78 197 116 12 11 31 18 44 16 28 -4 43
-60 34 -125 -4 -28 -2 -44 7 -49 18 -12 299 -13 321 -2 17 9 18 40 14 651 l-3
642 -31 82 c-17 45 -45 105 -63 133 -44 69 -143 157 -210 188 -30 14 -62 31
-70 38 -44 37 -398 54 -610 29z m621 -972 c38 -38 27 -198 -20 -291 -40 -78
-155 -182 -202 -182 -9 0 -28 -9 -42 -21 -38 -29 -234 -47 -351 -31 -71 9 -94
17 -138 47 -107 73 -142 157 -118 286 17 100 50 135 162 171 102 34 119 35
440 34 182 -1 260 -4 269 -13z"/>
<path fill="#3F3F3F" d="M10600 5808 c-36 -5 -88 -20 -116 -33 -28 -14 -54 -25 -58 -25 -11 0
-85 -58 -139 -110 -27 -25 -60 -66 -74 -92 -28 -51 -63 -65 -79 -30 -4 9 -10
78 -13 152 l-6 135 -155 3 c-149 3 -156 2 -173 -19 -16 -20 -17 -73 -17 -875
l1 -853 22 -16 c17 -12 52 -15 162 -15 77 0 145 4 152 8 10 6 13 127 15 507
l3 500 28 59 c15 32 27 63 27 69 0 21 65 114 113 159 68 66 188 122 307 143
153 27 145 18 146 170 3 184 2 184 -146 163z"/>
<path fill="#3F3F3F" d="M12538 5805 c-85 -10 -127 -19 -151 -34 -19 -12 -42 -21 -51 -21 -23
0 -259 -115 -275 -134 -12 -14 -10 -22 13 -54 14 -21 26 -43 26 -49 0 -6 7
-16 16 -24 8 -7 24 -30 35 -50 27 -53 54 -67 82 -41 12 12 54 33 92 49 39 16
82 36 96 46 33 22 170 48 284 54 105 6 236 -22 287 -59 121 -90 168 -173 168
-296 0 -111 12 -106 -261 -104 -435 4 -602 -19 -731 -102 -75 -47 -155 -138
-192 -216 -30 -63 -31 -69 -31 -210 l0 -145 44 -84 c24 -45 59 -98 77 -117 56
-55 146 -117 199 -137 132 -48 140 -49 324 -45 151 4 183 7 226 25 28 12 64
24 80 28 42 9 122 57 175 104 46 41 77 51 85 29 3 -7 6 -47 8 -88 2 -42 7 -81
11 -88 11 -18 315 -9 330 10 8 9 10 200 6 668 l-5 655 -33 65 c-17 36 -32 70
-32 76 0 19 -121 154 -162 182 -53 35 -53 35 -118 68 -99 49 -369 66 -622 39z
m610 -968 c8 -6 12 -41 12 -116 0 -94 -3 -116 -25 -164 -57 -129 -210 -229
-380 -249 -178 -20 -286 -5 -363 49 -82 57 -115 109 -120 188 -2 36 -1 86 3
111 14 99 126 170 290 185 97 9 567 6 583 -4z"/>
<path fill="#3F3F3F" d="M11126 5801 c-11 -18 -7 -1744 4 -1755 13 -13 287 -17 313 -4 16 8
17 60 17 876 0 662 -3 871 -12 880 -14 14 -314 17 -322 3z"/>
</g>
<g transform="translate(0.000000,166.000000) scale(0.025000,-0.025000)">
</g>
</svg>