<svg xmlns="http://www.w3.org/2000/svg" viewBox="0 0 294 174" width="294" height="174">
<g transform="translate(0.000000,174.000000) scale(0.025000,-0.025000)">
<path fill="#0F1E5C" d="M960 6855 c-8 -2 -49 -9 -90 -15 -83 -13 -121 -28 -290 -112 -95 -48
-129 -71 -195 -135 -174 -169 -247 -332 -266 -593 -6 -78 -9 -510 -7 -1020 l3
-885 27 -57 c56 -121 122 -174 251 -204 56 -13 141 -18 372 -21 278 -4 306 -3
383 16 133 33 232 105 297 216 l30 50 5 267 c3 146 9 270 13 275 5 4 133 10
285 13 272 5 278 6 332 31 36 17 73 45 102 78 67 77 86 162 87 386 1 150 -2
174 -19 205 -10 19 -24 45 -31 57 -6 12 -9 33 -5 47 6 24 11 26 56 26 28 0 52
-5 57 -12 4 -7 10 -321 13 -698 l5 -685 27 -55 c15 -31 52 -81 83 -112 44 -46
68 -61 122 -80 65 -21 85 -22 418 -25 235 -2 366 1 400 8 82 19 188 72 204
103 8 14 26 29 39 33 20 5 33 -4 76 -50 42 -46 62 -60 113 -77 58 -19 88 -20
410 -20 324 0 352 1 427 22 112 29 122 37 247 186 24 28 31 28 71 -6 47 -40
185 -125 236 -145 23 -9 83 -26 132 -37 82 -18 127 -20 503 -20 377 0 423 2
513 20 113 24 222 57 244 75 8 6 37 22 64 35 59 28 177 120 263 206 35 35 67
64 72 64 5 0 54 -44 108 -98 94 -94 129 -122 183 -149 14 -7 46 -26 72 -42 56
-35 140 -63 269 -88 138 -27 729 -26 904 0 216 33 341 79 461 168 29 21 57 39
61 39 4 0 37 -32 71 -70 76 -84 127 -112 253 -140 81 -17 129 -20 379 -20 257
0 293 2 360 21 96 26 143 49 204 99 26 22 52 40 57 40 5 0 35 -27 67 -59 90
-92 103 -95 485 -99 347 -3 418 4 542 55 69 29 146 98 175 159 20 39 20 65 20
1040 0 979 0 1002 -21 1079 -11 44 -26 91 -34 105 -7 14 -33 65 -56 113 -73
151 -208 289 -367 373 -198 106 -320 124 -832 124 -489 0 -550 -9 -780 -117
-90 -43 -119 -62 -201 -133 -69 -60 -85 -76 -111 -108 -24 -30 -43 -27 -72 11
-35 46 -197 186 -259 224 -84 52 -177 93 -249 109 -57 13 -144 15 -585 11
-390 -4 -532 -8 -574 -18 -30 -8 -109 -41 -174 -74 -99 -50 -133 -73 -208
-144 -48 -46 -95 -97 -103 -113 -18 -35 -43 -36 -75 -2 -30 34 -174 153 -214
179 -54 34 -178 96 -243 121 -126 48 -204 54 -652 54 -364 -1 -427 -3 -510
-20 -112 -22 -174 -43 -252 -88 -32 -17 -62 -32 -67 -32 -21 0 -206 -159 -241
-207 -13 -18 -31 -33 -41 -33 -9 0 -33 22 -53 48 -68 89 -156 156 -286 218
-114 54 -199 82 -295 96 -114 17 -1011 17 -1082 1 -106 -25 -306 -151 -440
-277 -50 -47 -97 -86 -103 -86 -7 0 -40 28 -73 63 -90 92 -189 161 -302 211
-235 104 -255 106 -771 105 -225 -1 -416 -3 -424 -4z m775 -199 c66 -18 137
-43 157 -54 124 -71 238 -168 305 -263 72 -101 121 -266 125 -422 3 -100 2
-105 -27 -153 -24 -37 -44 -56 -90 -79 l-59 -30 -219 -3 c-250 -4 -284 1 -341
55 -44 42 -56 69 -56 126 -1 107 -32 163 -119 214 -37 22 -52 25 -98 20 -79
-8 -135 -45 -167 -109 -26 -51 -26 -55 -26 -280 l0 -228 23 -5 c12 -3 155 -6
317 -8 279 -2 297 -3 340 -24 55 -27 113 -85 136 -138 13 -32 17 -64 15 -154
-3 -129 -15 -164 -78 -227 -70 -71 -85 -73 -388 -75 -148 0 -290 -4 -315 -7
l-45 -7 -5 -300 c-4 -246 -8 -306 -21 -335 -25 -54 -93 -118 -155 -145 -54
-24 -66 -25 -249 -25 -180 0 -196 2 -242 23 -67 31 -108 64 -140 111 l-28 41
0 925 c0 1037 -3 983 73 1132 53 102 83 146 133 198 102 105 206 174 320 211
132 43 172 47 494 48 l310 1 120 -34z m2210 20 c119 -28 146 -37 210 -67 206
-97 379 -313 432 -538 17 -70 18 -147 18 -976 l0 -900 -22 -42 c-32 -59 -68
-90 -143 -125 l-65 -29 -200 3 c-232 4 -261 13 -337 97 -63 69 -68 102 -68
419 0 151 -4 274 -10 282 -8 13 -38 14 -192 12 -106 -2 -188 -8 -195 -14 -10
-8 -13 -80 -13 -297 0 -173 -4 -301 -11 -325 -14 -49 -83 -117 -154 -150 -52
-25 -60 -26 -248 -26 -184 0 -197 1 -248 24 -74 33 -134 97 -159 170 -19 58
-20 81 -20 890 0 794 1 836 20 938 61 322 285 562 600 643 91 23 109 24 420
24 243 1 340 -3 385 -13z m2207 -11 c179 -39 254 -70 388 -161 77 -53 185
-169 229 -247 65 -114 92 -283 56 -344 -35 -59 -53 -62 -387 -63 -379 -1 -378
-1 -474 106 -67 75 -124 114 -164 114 -36 0 -120 -49 -141 -83 -29 -45 -22
-123 14 -171 41 -53 131 -118 237 -170 52 -26 102 -53 110 -59 19 -15 48 -32
130 -75 36 -19 95 -52 132 -73 36 -22 69 -39 71 -39 3 0 49 -25 102 -55 54
-30 101 -55 104 -55 13 0 94 -64 128 -100 136 -145 189 -332 159 -563 -24
-181 -179 -378 -391 -498 -68 -38 -213 -85 -342 -110 -87 -17 -133 -20 -320
-17 -229 4 -270 10 -433 59 -120 37 -184 70 -287 147 -179 135 -277 306 -278
485 l0 88 35 29 c47 39 81 42 420 38 336 -4 326 -2 434 -122 80 -89 119 -107
189 -87 23 7 59 29 80 49 34 33 37 40 37 92 0 46 -6 62 -34 100 -35 48 -172
146 -254 182 -26 12 -78 40 -117 63 -38 24 -106 61 -150 84 -44 23 -98 52
-120 64 -22 13 -65 37 -95 53 -337 183 -410 275 -441 553 -10 84 -8 108 9 191
11 52 33 124 50 160 46 96 152 214 253 281 137 92 169 106 321 143 144 35 128
33 390 35 217 1 246 -1 350 -24z m2221 4 c56 -11 135 -32 175 -45 67 -24 95
-38 234 -121 84 -50 189 -175 240 -283 79 -169 84 -272 17 -335 l-30 -30 -342
0 c-398 0 -377 -5 -473 108 -57 68 -114 107 -154 107 -42 0 -119 -42 -140 -75
-24 -38 -27 -113 -6 -153 32 -60 119 -127 266 -204 47 -25 103 -55 125 -68 22
-13 65 -37 95 -53 539 -288 585 -325 665 -518 80 -191 73 -360 -22 -544 -58
-113 -140 -202 -255 -278 -96 -63 -141 -84 -258 -119 -161 -49 -255 -60 -485
-56 -226 4 -268 11 -441 65 -111 35 -147 53 -282 145 -92 63 -208 213 -243
316 -51 150 -44 259 21 296 33 20 50 21 365 21 383 0 377 1 456 -101 49 -64
119 -114 158 -114 44 0 100 25 136 60 108 104 14 237 -267 377 -29 14 -69 36
-88 48 -19 12 -80 46 -135 75 -55 29 -107 58 -115 64 -8 7 -37 24 -65 38 -288
150 -342 188 -407 284 -64 96 -69 108 -89 204 -64 305 46 565 316 742 124 82
213 115 430 161 11 3 127 5 258 6 205 1 252 -2 340 -20z m2387 -4 c303 -81
523 -303 589 -595 22 -94 22 -105 19 -990 l-3 -895 -27 -46 c-27 -45 -66 -78
-143 -118 -36 -19 -56 -21 -241 -21 l-201 0 -61 31 c-66 33 -116 86 -138 147
-10 27 -13 113 -14 323 0 245 -2 288 -15 299 -18 15 -371 19 -385 4 -5 -5 -10
-146 -12 -314 -3 -305 -3 -305 -28 -345 -35 -57 -66 -84 -137 -116 -61 -29
-63 -29 -252 -29 -189 0 -192 0 -254 29 -75 33 -130 94 -152 167 -21 69 -22
1697 -1 1814 14 82 51 192 90 269 77 151 302 334 457 371 24 6 67 17 94 25 38
10 128 14 385 14 328 1 337 0 430 -24z m-3878 -1012 c29 -73 37 -91 59 -138
50 -106 235 -249 529 -409 55 -30 75 -47 75 -61 0 -19 -7 -20 -150 -19 -82 0
-161 3 -175 7 -19 5 -34 23 -57 70 -17 34 -54 91 -81 126 -28 35 -52 66 -54
70 -7 15 -173 158 -221 190 -30 20 -93 62 -141 94 -79 53 -97 73 -79 90 3 4
69 7 145 7 l138 0 12 -27z m2217 -11 c7 -16 11 -60 9 -98 -3 -67 -4 -69 -31
-72 -19 -2 -45 8 -81 32 -29 19 -83 51 -120 70 -68 34 -103 67 -91 86 4 6 67
10 154 10 l149 0 11 -28z m-4004 -468 c39 -26 98 -60 133 -76 59 -27 76 -48
50 -64 -7 -5 -69 -9 -138 -10 -164 -3 -170 0 -170 99 0 113 19 121 125 51z"/>
<path fill="#0F1E5C" d="M3479 6046 c-30 -16 -57 -42 -77 -73 l-31 -48 -2 -234 c0 -131 3
-237 8 -242 5 -5 90 -8 194 -7 l184 3 0 250 0 250 -28 37 c-63 82 -165 108
-248 64z"/>
<path fill="#0F1E5C" d="M10270 6054 c-58 -25 -98 -62 -120 -111 -19 -43 -20 -63 -18 -272 l3
-226 184 -3 c128 -2 188 1 197 9 11 9 14 49 13 188 -1 253 -6 293 -40 345 -21
31 -43 50 -79 65 -57 25 -92 26 -140 5z"/>
<path fill="#0F1E5C" d="M360 3660 c-84 -7 -130 -24 -178 -65 -72 -60 -67 9 -70 -984 -2 -602
1 -911 8 -944 12 -57 58 -120 103 -144 77 -39 124 -42 657 -42 477 -1 521 1
592 19 123 31 247 120 366 263 27 33 30 32 114 -49 84 -80 215 -164 313 -200
l80 -29 365 0 c336 0 369 2 415 19 66 26 177 90 221 128 41 37 79 33 95 -10
17 -46 78 -99 139 -122 55 -21 71 -21 347 -18 l290 3 39 27 c21 15 49 35 61
44 21 15 24 14 63 -18 63 -54 88 -58 401 -58 332 0 354 4 431 82 65 67 78 128
78 370 0 301 -20 400 -101 507 -27 36 -38 59 -34 72 4 10 10 19 16 19 10 0 53
82 76 144 17 47 44 232 36 251 -2 8 5 23 16 34 17 17 34 21 84 21 106 0 97 63
100 -645 l2 -620 28 -60 c35 -74 67 -109 132 -143 l50 -27 305 0 c296 0 306 1
346 22 23 12 60 43 82 69 60 70 62 93 62 777 l1 596 22 16 c23 16 142 21 165
7 9 -6 13 -110 15 -448 4 -472 2 -456 60 -604 31 -79 62 -126 131 -199 95 -98
199 -164 341 -212 69 -24 77 -24 425 -24 347 0 357 1 423 23 86 30 149 64 209
114 26 21 49 38 52 38 3 0 36 -30 73 -68 114 -113 65 -107 828 -107 650 0 650
0 695 22 47 23 102 71 133 117 18 26 51 35 62 16 14 -23 154 -108 215 -131 65
-24 67 -24 440 -24 362 0 377 1 444 23 176 57 313 176 402 348 85 163 84 156
84 741 0 296 -4 533 -10 564 -5 30 -27 87 -47 127 -71 138 -161 225 -312 297
-143 70 -190 77 -529 82 -274 4 -301 3 -394 -17 -250 -55 -427 -184 -525 -382
-57 -116 -64 -191 -63 -677 1 -395 1 -396 -20 -413 -20 -16 -44 -18 -214 -16
-183 2 -192 3 -213 25 l-23 22 0 618 c0 393 -4 631 -10 655 -6 20 -33 62 -61
92 -79 86 -91 89 -443 94 -376 5 -382 3 -444 -119 -15 -29 -32 -54 -38 -56 -6
-2 -35 16 -63 40 -66 56 -157 101 -246 121 -105 24 -762 18 -852 -7 -71 -20
-143 -58 -191 -99 -42 -36 -84 -37 -102 -2 -20 37 -81 82 -137 101 -42 14
-137 16 -753 20 -838 4 -820 6 -907 -84 -53 -54 -55 -55 -86 -42 -18 7 -39 18
-47 24 -30 23 -128 65 -176 75 -27 6 -83 15 -124 19 -108 13 -1033 13 -1097 0
-69 -14 -114 -45 -138 -96 -16 -35 -24 -43 -46 -43 -15 0 -41 12 -58 26 -45
38 -141 81 -223 101 -63 16 -123 18 -438 18 -343 0 -369 -2 -436 -22 -115 -34
-220 -97 -300 -180 -39 -40 -77 -73 -85 -73 -8 0 -22 12 -32 28 -31 50 -74 90
-143 131 -37 23 -73 41 -78 41 -6 0 -24 7 -41 16 -16 9 -73 25 -125 36 -84 17
-148 19 -550 22 -250 2 -489 0 -530 -4z m945 -122 c65 -24 93 -38 187 -96 37
-23 125 -126 165 -192 12 -19 31 -71 43 -115 19 -69 22 -96 17 -195 -4 -98 -9
-126 -35 -187 -16 -40 -41 -86 -55 -102 -43 -52 -43 -66 2 -134 61 -94 82
-164 88 -289 5 -90 2 -120 -17 -190 -55 -208 -217 -360 -442 -418 -70 -18
-111 -20 -473 -20 l-397 0 -47 25 c-30 17 -57 42 -76 73 l-30 47 0 840 0 840
30 47 c20 32 45 55 80 73 l50 26 420 -4 420 -3 70 -26z m1654 -1 c134 -56 214
-114 295 -215 73 -93 91 -127 120 -235 26 -95 26 -95 26 -502 0 -372 -2 -413
-20 -484 -28 -112 -55 -166 -126 -256 -89 -112 -201 -186 -337 -224 -64 -18
-102 -21 -292 -21 -192 0 -228 3 -294 21 -171 48 -336 186 -410 344 -71 152
-72 158 -68 635 2 276 7 442 15 473 20 85 90 211 153 281 52 56 138 126 155
126 3 0 18 8 32 19 29 19 137 57 187 64 17 3 136 4 265 3 229 -3 237 -3 299
-29z m1626 8 c71 -23 191 -91 244 -139 40 -36 126 -158 149 -212 34 -81 48
-214 34 -338 -14 -130 -46 -212 -112 -291 -27 -33 -50 -65 -50 -71 0 -5 20
-31 43 -57 56 -60 105 -151 128 -241 15 -57 19 -109 19 -267 0 -186 -1 -198
-23 -240 -13 -24 -38 -54 -57 -66 -31 -22 -42 -23 -227 -23 -206 0 -226 4
-269 52 -35 37 -42 82 -43 277 -2 159 -4 188 -21 221 -23 45 -38 50 -158 50
-65 0 -94 -4 -97 -12 -2 -7 -6 -116 -7 -243 -3 -221 -4 -231 -27 -268 -42 -69
-73 -77 -291 -77 -218 0 -226 2 -278 90 l-27 45 -2 840 -2 840 24 50 c14 31
39 61 62 78 l38 27 437 0 437 0 76 -25z m2001 -6 c22 -14 53 -46 69 -69 28
-41 30 -48 28 -133 -2 -100 -22 -153 -75 -196 -41 -33 -84 -40 -233 -41 -88 0
-135 -4 -143 -12 -9 -9 -12 -175 -13 -682 0 -493 -3 -680 -12 -706 -7 -20 -30
-48 -55 -67 l-44 -33 -196 0 c-194 0 -196 0 -233 26 -24 16 -45 43 -58 74 -21
48 -21 61 -21 712 0 503 -3 667 -12 676 -8 8 -51 12 -129 12 -172 0 -225 23
-275 123 -36 73 -34 164 6 234 29 50 65 84 111 102 15 6 265 9 635 8 l610 -2
40 -26z m1313 1 c123 -44 236 -129 317 -237 124 -164 137 -239 131 -768 -4
-438 -8 -469 -79 -595 -66 -117 -131 -179 -301 -284 -69 -42 -160 -56 -391
-56 -194 0 -229 3 -295 21 -78 22 -114 39 -168 77 -17 12 -35 22 -40 22 -14 0
-108 92 -148 145 -38 51 -71 116 -108 220 -21 58 -22 73 -22 505 l0 445 28 70
c52 127 97 202 160 264 58 56 147 121 166 121 5 0 14 6 20 14 11 13 111 50
161 59 14 3 133 4 265 3 223 -2 245 -4 304 -26z m1092 2 c19 -12 49 -41 65
-64 l29 -43 5 -690 5 -690 315 -5 c351 -6 359 -7 399 -75 18 -31 21 -52 21
-138 0 -123 -18 -172 -78 -212 l-39 -25 -565 2 -566 3 -38 30 c-20 17 -50 53
-65 81 l-29 50 0 801 c-1 566 3 815 11 846 13 55 82 131 131 146 18 6 107 9
198 8 151 -2 168 -4 201 -25z m2039 -2 c36 -13 76 -31 90 -40 14 -10 49 -32
78 -50 101 -62 209 -207 255 -340 21 -63 22 -81 25 -504 3 -536 1 -550 -121
-735 -43 -64 -84 -102 -182 -166 -140 -93 -195 -105 -468 -105 -194 0 -230 3
-296 21 -42 12 -83 27 -92 35 -8 8 -19 14 -23 14 -15 0 -98 55 -149 99 -62 53
-97 100 -149 198 -65 123 -68 147 -68 613 0 378 2 422 20 492 22 87 34 113 96
207 52 80 66 96 124 143 89 71 194 121 300 141 14 3 131 4 260 3 217 -3 240
-4 300 -26z"/>
<path fill="#0F1E5C" d="M841 3106 c-13 -15 -18 -266 -7 -285 4 -7 40 -11 90 -11 72 0 86 3
117 25 45 34 69 80 69 135 0 56 -37 116 -86 136 -44 19 -168 19 -183 0z"/>
<path fill="#0F1E5C" d="M841 2346 c-16 -19 -17 -262 0 -282 17 -21 144 -19 188 4 55 27 76
64 76 132 0 66 -18 99 -75 138 -27 18 -47 22 -105 22 -50 0 -76 -4 -84 -14z"/>
<path fill="#0F1E5C" d="M2541 3107 c-13 -6 -33 -23 -43 -37 -18 -24 -19 -51 -19 -460 0 -239
0 -447 0 -462 1 -16 14 -43 32 -63 30 -34 34 -35 98 -35 62 0 71 3 107 34 l39
34 0 458 c0 500 1 488 -58 524 -37 23 -119 27 -156 7z"/>
<path fill="#0F1E5C" d="M4144 3088 c-10 -17 -6 -400 5 -411 4 -4 43 -5 85 -1 65 6 83 12 119
39 34 26 45 43 60 92 23 78 21 127 -7 193 -33 77 -74 100 -178 100 -50 0 -79
-4 -84 -12z"/>
<path fill="#0F1E5C" d="M7500 3112 c-14 -4 -39 -29 -57 -56 l-33 -48 0 -407 c0 -264 4 -420
11 -446 6 -21 26 -54 44 -72 30 -30 39 -33 91 -33 71 0 113 23 137 71 13 29
16 91 16 448 0 239 -3 430 -9 451 -16 58 -60 93 -122 96 -29 2 -64 0 -78 -4z"/>
<path fill="#0F1E5C" d="M10620 3102 c-71 -38 -71 -39 -70 -521 0 -257 5 -441 10 -458 16 -45
70 -73 138 -73 54 0 61 3 95 36 20 21 39 51 42 68 3 17 5 222 3 456 l-3 426
-23 29 c-13 17 -33 35 -45 42 -33 18 -108 15 -147 -5z"/>
<path fill="#0F1E5C" d="M10981 894 c-22 -28 -27 -59 -11 -69 10 -6 75 61 75 78 0 24 -43 18
-64 -9z"/>
<path fill="#0F1E5C" d="M232 768 c-49 -13 -92 -66 -118 -144 -30 -86 -30 -149 -2 -233 39
-119 87 -161 188 -161 66 0 111 20 144 62 55 73 35 137 -41 129 -6 0 -20 -17
-32 -36 -41 -70 -108 -65 -147 11 -39 77 -13 247 41 268 37 14 72 5 100 -24
44 -46 105 -37 105 15 0 35 -55 102 -92 113 -39 12 -100 12 -146 0z"/>
<path fill="#0F1E5C" d="M1456 772 c-8 -13 -9 -518 -1 -532 7 -12 84 -13 103 -1 10 6 13 62
13 261 0 144 -5 258 -10 263 -14 14 -97 21 -105 9z"/>
<path fill="#0F1E5C" d="M6435 765 c-50 -25 -93 -82 -106 -139 -6 -30 -10 -98 -7 -157 3 -92
7 -109 32 -152 39 -67 88 -90 175 -85 82 4 122 30 151 95 24 55 22 66 -21 88
-34 18 -43 14 -63 -26 -6 -13 -26 -32 -45 -43 -34 -19 -34 -19 -70 0 -47 25
-64 86 -55 193 5 61 11 79 34 104 38 42 83 42 121 -1 31 -34 63 -41 94 -19 16
12 17 18 6 48 -24 69 -87 109 -170 109 -25 0 -59 -7 -76 -15z"/>
<path fill="#0F1E5C" d="M6955 775 c-5 -2 -22 -6 -37 -9 -37 -8 -85 -51 -110 -99 -17 -33 -20
-60 -21 -151 -1 -137 6 -170 50 -223 77 -96 256 -86 316 18 35 62 51 139 44
223 -6 77 -40 168 -75 199 -37 34 -126 56 -167 42z m76 -115 c10 -6 29 -29 40
-52 19 -36 21 -54 16 -125 -5 -93 -20 -123 -66 -143 -38 -15 -84 0 -108 37
-21 31 -34 155 -21 201 20 71 86 110 139 82z"/>
<path fill="#0F1E5C" d="M7904 770 c-81 -19 -123 -86 -109 -175 7 -53 49 -93 130 -124 75 -30
105 -56 105 -93 0 -30 -30 -68 -54 -68 -33 0 -64 20 -84 54 -22 37 -40 43 -89
30 -30 -8 -29 -37 0 -89 30 -52 75 -74 156 -75 51 0 73 5 106 25 52 30 70 69
70 152 0 94 -11 105 -205 197 -18 8 -26 21 -28 44 -3 27 1 34 22 42 31 11 54
4 81 -25 44 -50 125 -35 111 19 -18 72 -112 110 -212 86z"/>
<path fill="#0F1E5C" d="M9735 761 c-50 -23 -67 -42 -99 -113 -63 -138 -14 -347 96 -404 35
-18 129 -18 173 0 33 14 77 69 90 113 16 55 -76 85 -102 33 -16 -32 -50 -60
-73 -60 -30 0 -76 46 -88 88 -29 98 -5 206 54 243 33 20 35 20 62 3 15 -9 33
-26 40 -36 13 -18 55 -24 86 -12 28 11 18 56 -22 102 -29 34 -47 46 -82 52
-64 13 -90 11 -135 -9z"/>
<path fill="#0F1E5C" d="M10212 765 c-56 -17 -75 -35 -103 -98 -20 -45 -23 -68 -23 -167 1
-130 19 -187 74 -234 56 -46 184 -48 243 -3 36 27 73 97 64 121 -8 20 -62 47
-81 40 -8 -3 -19 -18 -25 -34 -5 -16 -21 -36 -35 -45 -21 -14 -31 -15 -60 -5
-46 15 -68 51 -74 126 -9 121 12 180 77 205 17 7 31 4 56 -11 18 -11 36 -27
39 -35 7 -20 70 -20 86 0 24 29 -15 102 -68 129 -41 20 -122 25 -170 11z"/>
<path fill="#0F1E5C" d="M10566 764 c-3 -9 -6 -130 -6 -269 0 -286 -3 -276 74 -265 32 4 41
10 46 30 8 34 5 494 -4 509 -11 18 -103 14 -110 -5z"/>
<path fill="#0F1E5C" d="M10939 771 c-70 -14 -128 -75 -145 -151 -24 -109 -3 -266 42 -326 29
-37 95 -64 158 -64 146 0 213 97 204 299 -3 83 -8 103 -33 151 -43 80 -124
113 -226 91z m115 -132 c34 -40 39 -63 35 -158 -4 -88 -24 -128 -72 -145 -38
-14 -89 13 -110 57 -36 75 -12 236 40 266 36 21 80 13 107 -20z"/>
<path fill="#0F1E5C" d="M703 758 c-15 -19 -48 -117 -89 -263 -56 -201 -65 -236 -58 -246 3
-5 23 -9 44 -9 42 0 70 20 70 50 0 27 30 40 94 40 54 0 86 -16 86 -43 0 -22
16 -37 48 -46 25 -7 36 -6 52 7 20 17 20 18 -21 152 -58 193 -65 218 -83 284
-8 32 -21 65 -27 72 -14 18 -103 19 -116 2z m90 -218 c26 -80 21 -104 -23
-108 -19 -2 -43 3 -54 11 -17 13 -18 18 -7 68 21 90 21 90 44 87 17 -2 26 -16
40 -58z"/>
<path fill="#0F1E5C" d="M1055 757 c-3 -7 -4 -125 -3 -262 l3 -250 150 0 150 0 3 38 c5 59 -8
67 -104 67 -52 0 -85 4 -90 12 -4 6 -7 92 -7 192 1 100 -3 189 -8 199 -12 21
-87 24 -94 4z"/>
<path fill="#0F1E5C" d="M1695 757 c-3 -7 -4 -125 -3 -262 l3 -250 127 0 c148 0 166 8 208 91
52 103 34 318 -33 382 -18 17 -45 36 -60 41 -42 16 -236 14 -242 -2z m195
-102 c42 -21 59 -61 61 -141 3 -94 -14 -142 -57 -160 -88 -37 -104 -14 -103
150 1 112 3 130 20 147 23 23 41 24 79 4z"/>
<path fill="#0F1E5C" d="M2246 748 c-7 -13 -19 -39 -24 -58 -6 -19 -18 -57 -27 -85 -48 -153
-63 -206 -78 -267 -25 -97 -24 -98 26 -98 46 0 67 13 67 41 0 33 28 49 88 49
63 0 102 -19 102 -49 0 -23 17 -37 54 -44 39 -7 56 1 56 24 0 28 -52 218 -100
367 -11 34 -20 71 -20 82 0 35 -35 60 -85 60 -35 0 -47 -5 -59 -22z m84 -157
c5 -11 10 -30 10 -42 0 -12 5 -38 12 -56 10 -28 10 -36 -4 -50 -19 -19 -73
-22 -90 -5 -8 8 -8 26 1 69 7 32 15 68 17 81 5 28 39 30 54 3z"/>
<path fill="#0F1E5C" d="M2605 752 c-7 -19 -5 -479 2 -498 4 -11 32 -14 114 -14 90 0 117 4
149 20 74 38 108 153 91 305 -13 110 -42 165 -101 189 -56 22 -246 21 -255 -2z
m196 -99 c15 -9 34 -31 41 -47 16 -37 14 -195 -1 -225 -14 -26 -86 -49 -109
-34 -26 16 -30 277 -6 304 21 23 38 24 75 2z"/>
<path fill="#0F1E5C" d="M3265 760 c-11 -18 -9 -500 2 -511 6 -6 30 -9 54 -7 l44 3 3 87 c2
56 7 90 16 97 7 6 41 13 74 15 104 5 142 50 142 166 0 76 -20 124 -59 144 -36
19 -265 23 -276 6z m218 -112 c47 -63 -37 -154 -95 -101 -20 18 -25 82 -7 114
16 30 76 22 102 -13z"/>
<path fill="#0F1E5C" d="M3772 762 c-7 -5 -24 -47 -37 -93 -51 -176 -64 -219 -70 -230 -10
-15 -36 -128 -38 -164 -2 -28 1 -30 36 -33 45 -4 67 11 67 44 0 31 27 44 92
44 59 0 98 -20 98 -49 0 -25 19 -39 55 -41 48 -3 55 -1 55 18 0 22 -30 145
-61 247 -11 39 -30 102 -41 140 -34 116 -36 120 -93 123 -28 1 -56 -2 -63 -6z
m82 -174 c3 -13 8 -36 11 -53 17 -83 17 -87 4 -96 -22 -14 -75 -10 -89 6 -10
12 -10 21 -1 41 6 14 11 39 11 55 0 17 5 39 10 50 15 27 48 25 54 -3z"/>
<path fill="#0F1E5C" d="M4125 757 c-3 -7 -4 -125 -3 -262 l3 -250 52 -3 52 -3 3 103 3 103
30 0 c32 0 41 -13 86 -125 30 -76 34 -80 94 -80 61 0 70 6 52 34 -7 12 -23 48
-36 81 -13 33 -32 69 -42 81 -25 27 -24 36 7 65 77 70 71 214 -9 252 -45 22
-285 25 -292 4z m191 -77 c23 0 54 -38 54 -65 0 -37 -33 -65 -78 -65 -48 0
-62 14 -62 62 0 42 31 83 57 74 8 -3 21 -6 29 -6z"/>
<path fill="#0F1E5C" d="M4708 759 c-10 -5 -18 -18 -18 -27 -1 -9 -8 -35 -16 -57 -9 -22 -22
-62 -30 -90 -101 -365 -99 -345 -36 -345 41 0 57 11 64 45 5 27 44 45 98 45
55 0 66 -7 88 -51 15 -30 22 -34 60 -37 56 -4 60 9 33 106 -12 42 -28 102 -37
132 -8 30 -19 63 -24 72 -5 10 -14 34 -19 55 -27 104 -42 147 -53 155 -18 11
-90 9 -110 -3z m80 -171 c6 -7 15 -40 21 -72 13 -69 4 -86 -43 -86 -52 0 -59
10 -51 76 4 33 12 67 17 77 10 20 41 23 56 5z"/>
<path fill="#0F1E5C" d="M5266 754 c-14 -13 -16 -50 -16 -245 0 -140 4 -238 10 -250 10 -17
23 -19 150 -19 99 0 141 4 146 12 11 18 4 82 -9 90 -7 4 -44 8 -84 8 -99 0
-98 -2 -97 206 1 93 -3 179 -7 192 -7 17 -16 22 -43 22 -19 0 -42 -7 -50 -16z"/>
<path fill="#0F1E5C" d="M5764 733 c-8 -21 -19 -47 -24 -58 -5 -11 -13 -40 -19 -65 -19 -84
-49 -199 -55 -209 -4 -5 -11 -31 -16 -58 -5 -26 -12 -58 -16 -70 -5 -18 -1
-25 20 -33 38 -14 73 3 93 47 17 36 20 38 72 41 78 5 98 -3 106 -38 7 -34 32
-51 77 -52 52 -2 52 7 -3 187 -12 39 -37 126 -56 195 -19 69 -39 131 -45 138
-6 7 -33 12 -65 12 -53 0 -54 -1 -69 -37z m90 -145 c2 -7 11 -39 20 -71 20
-68 12 -87 -39 -87 -50 0 -58 17 -45 92 7 34 14 66 16 70 8 13 44 9 48 -4z"/>
<path fill="#0F1E5C" d="M7303 758 c-11 -18 -12 -479 -1 -501 6 -12 21 -17 48 -17 49 0 52 9
48 145 -2 84 0 107 12 115 8 5 18 6 22 4 5 -3 32 -51 60 -107 74 -149 81 -157
133 -157 24 0 47 5 50 11 4 5 6 121 6 257 -2 257 -3 262 -46 262 -45 0 -50
-12 -48 -134 2 -91 -1 -117 -13 -127 -12 -10 -18 -9 -33 7 -22 22 -111 192
-111 210 0 35 -108 61 -127 32z"/>
<path fill="#0F1E5C" d="M8206 754 c-3 -9 -6 -26 -6 -39 0 -45 10 -55 54 -55 78 0 79 -3 77
-204 -2 -207 1 -218 62 -214 l42 3 5 193 c5 177 7 195 24 208 11 8 34 14 52
14 54 0 64 8 64 51 0 28 -5 41 -19 49 -11 6 -90 10 -184 10 -141 0 -166 -2
-171 -16z"/>
<path fill="#0F1E5C" d="M8682 753 c-13 -26 -9 -490 5 -504 6 -6 28 -9 49 -7 l39 3 3 80 c3
111 7 125 37 125 28 0 46 -24 65 -85 7 -22 24 -59 37 -82 24 -41 27 -43 74
-43 34 0 51 5 55 14 7 17 -42 132 -68 162 -27 30 -22 58 17 110 31 40 35 52
35 105 0 54 -3 63 -34 97 l-34 37 -135 3 c-123 4 -136 2 -145 -15z m216 -96
c36 -33 27 -75 -22 -100 -35 -19 -41 -19 -65 -6 -23 14 -26 21 -24 64 3 77 53
96 111 42z"/>
<path fill="#0F1E5C" d="M9132 751 c-4 -11 -5 -106 -2 -213 5 -211 12 -236 72 -281 30 -23
122 -34 182 -23 47 9 101 62 115 111 12 46 18 396 7 413 -8 13 -64 16 -83 4
-8 -5 -13 -63 -15 -189 -3 -174 -4 -182 -26 -206 -13 -14 -35 -28 -48 -31 -32
-8 -82 18 -90 48 -3 13 -6 100 -7 192 -1 93 -6 175 -10 182 -5 6 -26 12 -48
12 -30 0 -41 -5 -47 -19z"/>
<path fill="#0F1E5C" d="M11317 758 c-16 -12 -17 -37 -15 -263 l3 -250 45 0 45 0 3 119 c3
136 12 159 48 125 13 -12 29 -37 35 -56 6 -19 31 -70 56 -114 l44 -79 49 0
c27 0 52 5 56 11 4 7 7 120 8 252 1 261 0 267 -53 267 -46 0 -51 -14 -51 -143
l0 -118 -27 3 c-23 3 -34 18 -84 117 -31 63 -65 120 -75 128 -23 16 -65 17
-87 1z"/>
</g>
</svg>